<svg xmlns="http://www.w3.org/2000/svg" viewBox="0 0 1536 1024" role="img" aria-label="分层落地路线">
  <rect width="1536" height="1024" fill="#fbf6ec"/>
  <rect x="42" y="42" width="1452" height="940" rx="26" fill="#fffdf8" stroke="#d8c7ad" stroke-width="2"/>
  <text x="768" y="142" text-anchor="middle" font-family="Microsoft YaHei UI, PingFang SC, sans-serif" font-size="62" font-weight="800" fill="#20251f">分层落地路线</text>
  <text x="768" y="190" text-anchor="middle" font-family="Microsoft YaHei UI, PingFang SC, sans-serif" font-size="25" fill="#6d6252">看现场、试动作、固化路径、批量生产，四层分工</text>
  <g font-family="Microsoft YaHei UI, PingFang SC, sans-serif">
    <g transform="translate(210 242)">
      <rect width="1116" height="126" rx="18" fill="#fff9ee" stroke="#d8c7ad" stroke-width="2"/>
      <rect x="28" y="25" width="88" height="76" rx="14" fill="#8f5e2c"/>
      <text x="72" y="73" text-anchor="middle" font-size="34" font-weight="800" fill="#fffdf8">01</text>
      <text x="160" y="52" font-size="34" font-weight="800" fill="#20251f">CDP Bridge MCP</text>
      <text x="160" y="92" font-size="22" fill="#2f7f6c">读真实浏览器现场</text>
      <text x="540" y="52" font-size="22" fill="#6d6252">复用已登录 Chrome，读取标签页、正文、Cookie，执行轻量 JS</text>
    </g>
    <path d="M768 368v34m0 0-12-14m12 14 12-14" fill="none" stroke="#b89a6a" stroke-width="4"/>
    <g transform="translate(210 398)">
      <rect width="1116" height="126" rx="18" fill="#eef6f0" stroke="#d8c7ad" stroke-width="2"/>
      <rect x="28" y="25" width="88" height="76" rx="14" fill="#8f5e2c"/>
      <text x="72" y="73" text-anchor="middle" font-size="34" font-weight="800" fill="#fffdf8">02</text>
      <text x="160" y="52" font-size="34" font-weight="800" fill="#20251f">OpenCLI</text>
      <text x="160" y="92" font-size="22" fill="#2f7f6c">快速完成页面操作</text>
      <text x="540" y="52" font-size="22" fill="#6d6252">open / state / click / extract，适合临时搜索、验证、排障</text>
    </g>
    <path d="M768 524v34m0 0-12-14m12 14 12-14" fill="none" stroke="#b89a6a" stroke-width="4"/>
    <g transform="translate(210 554)">
      <rect width="1116" height="126" rx="18" fill="#fff9ee" stroke="#d8c7ad" stroke-width="2"/>
      <rect x="28" y="25" width="88" height="76" rx="14" fill="#8f5e2c"/>
      <text x="72" y="73" text-anchor="middle" font-size="34" font-weight="800" fill="#fffdf8">03</text>
      <text x="160" y="52" font-size="34" font-weight="800" fill="#20251f">playwright-cli</text>
      <text x="160" y="92" font-size="22" fill="#2f7f6c">探索并固化路径</text>
      <text x="540" y="52" font-size="22" fill="#6d6252">处理按钮、iframe、下载、滚动，沉淀稳定选择器</text>
    </g>
    <path d="M768 680v34m0 0-12-14m12 14 12-14" fill="none" stroke="#b89a6a" stroke-width="4"/>
    <g transform="translate(210 710)">
      <rect width="1116" height="126" rx="18" fill="#eef6f0" stroke="#d8c7ad" stroke-width="2"/>
      <rect x="28" y="25" width="88" height="76" rx="14" fill="#8f5e2c"/>
      <text x="72" y="73" text-anchor="middle" font-size="34" font-weight="800" fill="#fffdf8">04</text>
      <text x="160" y="52" font-size="34" font-weight="800" fill="#20251f">Playwright</text>
      <text x="160" y="92" font-size="22" fill="#2f7f6c">最终批量生产</text>
      <text x="540" y="52" font-size="22" fill="#6d6252">写成 Python 脚本，接 CSV / SQLite / Parquet / 定时任务</text>
    </g>
  </g>
  <text x="768" y="930" text-anchor="middle" font-family="Microsoft YaHei UI, PingFang SC, sans-serif" font-size="30" font-weight="800" fill="#8f5e2c">AI 负责探索，Playwright 负责长期运行。</text>
</svg>
